[FORMAT]:.......................[ MP4
[GENRE]:........................[ Animation
[FILE SIZE]:....................[ 1021MB
[RESOLUTION]:...................[ 1280*720
[FRAME RATE]:...................[ 23.976 fps
[LANGUAGE ]:....................[ Hindi
[SUBTITLES]:....................[ None
[RUNTIME]:......................[ 1h 48mn 39sec
[SOURCE]:.......................[ 720p

General

Complete name : Doraemon Nobita And The New Steel Troops Angel Wings 2011 [Hindi] 720p
Format : MPEG-4
Format profile : Base Media / Version 2
Codec ID : mp42
File size : 1 020 MiB
Duration : 1h 48mn
Overall bit rate mode : Variable
Overall bit rate : 1 312 Kbps
Encoded date : UTC 2012-05-31 13:57:16
Tagged date : UTC 2012-05-31 15:43:24
Writing application : HandBrake 0.9.5 2011010300

Video

ID : 1
Format : AVC
Format/Info : Advanced Video Codec
Format profile : Main@L3.1
Format settings, CABAC : Yes
Format settings, ReFrames : 5 frames
Codec ID : avc1
Codec ID/Info : Advanced Video Coding
Duration : 1h 48mn
Bit rate mode : Variable
Bit rate : 1 148 Kbps
Width : 1 280 pixels
Height : 720 pixels
Display aspect ratio : 16:9
Frame rate mode : Variable
Frame rate : 23.976 fps
Minimum frame rate : 15.385 fps
Maximum frame rate : 1 000.000 fps
Color space : YUV
Chroma subsampling : 4:2:0
Bit depth : 8 bits
Scan type : Progressive
Bits/(Pixel*Frame) : 0.052
Stream size : 892 MiB (87%)
Writing library : x264 core 112


Audio

ID : 2
Format : AAC
Format/Info : Advanced Audio Codec
Format profile : LC
Codec ID : 40
Duration : 1h 48mn
Bit rate mode : Variable
Bit rate : 160 Kbps
Maximum bit rate : 358 Kbps
Channel(s) : 2 channels
Channel positions : Front: L R
Sampling rate : 44.1 KHz
Compression mode : Lossy
Delay relative to video : -83ms
Stream size : 124 MiB (12%)
